<svg width="149" height="263" viewBox="0 0 149 263" fill="none" xmlns="http://www.w3.org/2000/svg">
<mask id="path-1-inside-1_212_6" fill="white">
<path fill-rule="evenodd" clip-rule="evenodd" d="M13 0C5.8203 0 0 5.8203 0 13V110C0 117.18 5.8203 123 13 123H37.3129V250C37.3129 257.18 43.1332 263 50.3129 263H135.663C142.842 263 148.663 257.18 148.663 250V112.955C148.883 112.005 149 111.016 149 110V13C149 5.8203 143.18 0 136 0H13Z"/>
</mask>
<path d="M37.3129 123H39.3129V121H37.3129V123ZM148.663 112.955L146.715 112.502L146.663 112.725V112.955H148.663ZM2 13C2 6.92487 6.92487 2 13 2V-2C4.71573 -2 -2 4.71573 -2 13H2ZM2 110V13H-2V110H2ZM13 121C6.92487 121 2 116.075 2 110H-2C-2 118.284 4.71573 125 13 125V121ZM37.3129 121H13V125H37.3129V121ZM39.3129 250V123H35.3129V250H39.3129ZM50.3129 261C44.2378 261 39.3129 256.075 39.3129 250H35.3129C35.3129 258.284 42.0286 265 50.3129 265V261ZM135.663 261H50.3129V265H135.663V261ZM146.663 250C146.663 256.075 141.738 261 135.663 261V265C143.947 265 150.663 258.284 150.663 250H146.663ZM146.663 112.955V250H150.663V112.955H146.663ZM147 110C147 110.863 146.901 111.7 146.715 112.502L150.611 113.407C150.866 112.311 151 111.17 151 110H147ZM147 13V110H151V13H147ZM136 2C142.075 2 147 6.92487 147 13H151C151 4.71573 144.284 -2 136 -2V2ZM13 2H136V-2H13V2Z" fill="#5C5C5C" mask="url(#path-1-inside-1_212_6)"/>
</svg>
