<svg xmlns="http://www.w3.org/2000/svg" xmlns:xlink="http://www.w3.org/1999/xlink" width="100" zoomAndPan="magnify" viewBox="0 0 75 37.5" height="50" preserveAspectRatio="xMidYMid meet" version="1.0"><defs><g/></defs><g fill="#5697c2" fill-opacity="1"><g transform="translate(37.385972, 25.068058)"><g><path d="M 4.515625 -14.8125 C 3.878906 -14.8125 3.441406 -14.640625 3.203125 -14.296875 C 2.960938 -13.953125 2.84375 -13.425781 2.84375 -12.71875 L 2.84375 -3.578125 C 2.84375 -2.867188 2.957031 -2.34375 3.1875 -2 C 3.414062 -1.65625 3.859375 -1.484375 4.515625 -1.484375 L 5.046875 -1.484375 L 5.046875 0 L 4.40625 0 C 3.15625 0 2.28125 -0.289062 1.78125 -0.875 C 1.289062 -1.457031 1.046875 -2.359375 1.046875 -3.578125 L 1.046875 -12.71875 C 1.046875 -13.9375 1.289062 -14.835938 1.78125 -15.421875 C 2.28125 -16.003906 3.15625 -16.296875 4.40625 -16.296875 L 5.046875 -16.296875 L 5.046875 -14.8125 Z M 4.515625 -14.8125 "/></g></g></g><g fill="#5697c2" fill-opacity="1"><g transform="translate(40.365587, 25.068058)"><g><path d="M 4.984375 -14.8125 C 4.484375 -14.8125 4.144531 -14.664062 3.96875 -14.375 C 3.789062 -14.09375 3.6875 -13.640625 3.65625 -13.015625 L 3.515625 -10.390625 C 3.503906 -10.140625 3.476562 -9.894531 3.4375 -9.65625 C 3.394531 -9.425781 3.316406 -9.210938 3.203125 -9.015625 C 3.097656 -8.828125 2.945312 -8.65625 2.75 -8.5 C 2.5625 -8.34375 2.3125 -8.226562 2 -8.15625 C 2.3125 -8.070312 2.5625 -7.953125 2.75 -7.796875 C 2.945312 -7.640625 3.097656 -7.460938 3.203125 -7.265625 C 3.316406 -7.078125 3.394531 -6.863281 3.4375 -6.625 C 3.476562 -6.394531 3.503906 -6.15625 3.515625 -5.90625 L 3.65625 -3.28125 C 3.6875 -2.65625 3.789062 -2.195312 3.96875 -1.90625 C 4.144531 -1.625 4.484375 -1.484375 4.984375 -1.484375 L 5.421875 -1.484375 L 5.421875 0 L 4.359375 0 C 3.609375 0 3.046875 -0.210938 2.671875 -0.640625 C 2.304688 -1.078125 2.09375 -1.691406 2.03125 -2.484375 L 1.859375 -5.65625 C 1.828125 -6.226562 1.726562 -6.644531 1.5625 -6.90625 C 1.40625 -7.175781 1.039062 -7.332031 0.46875 -7.375 L 0.46875 -8.921875 C 1.039062 -8.960938 1.40625 -9.113281 1.5625 -9.375 C 1.726562 -9.644531 1.828125 -10.066406 1.859375 -10.640625 L 2.03125 -13.8125 C 2.09375 -14.601562 2.304688 -15.210938 2.671875 -15.640625 C 3.046875 -16.078125 3.609375 -16.296875 4.359375 -16.296875 L 5.421875 -16.296875 L 5.421875 -14.8125 Z M 4.984375 -14.8125 "/></g></g></g><g fill="#5697c2" fill-opacity="1"><g transform="translate(28.647629, 25.068058)"><g><path d="M 1.625 -16.296875 C 2.351562 -16.296875 2.90625 -16.078125 3.28125 -15.640625 C 3.664062 -15.210938 3.882812 -14.601562 3.9375 -13.8125 L 4.125 -10.640625 C 4.132812 -10.359375 4.160156 -10.113281 4.203125 -9.90625 C 4.242188 -9.695312 4.3125 -9.519531 4.40625 -9.375 C 4.5 -9.238281 4.632812 -9.128906 4.8125 -9.046875 C 4.988281 -8.972656 5.21875 -8.929688 5.5 -8.921875 L 5.5 -7.375 C 5.21875 -7.34375 4.988281 -7.289062 4.8125 -7.21875 C 4.632812 -7.15625 4.5 -7.050781 4.40625 -6.90625 C 4.3125 -6.769531 4.242188 -6.597656 4.203125 -6.390625 C 4.160156 -6.179688 4.132812 -5.9375 4.125 -5.65625 L 3.9375 -2.484375 C 3.882812 -1.691406 3.664062 -1.078125 3.28125 -0.640625 C 2.90625 -0.210938 2.351562 0 1.625 0 L 0.5625 0 L 0.5625 -1.484375 L 1 -1.484375 C 1.5 -1.484375 1.835938 -1.625 2.015625 -1.90625 C 2.191406 -2.195312 2.296875 -2.65625 2.328125 -3.28125 L 2.46875 -5.90625 C 2.476562 -6.15625 2.503906 -6.394531 2.546875 -6.625 C 2.585938 -6.863281 2.660156 -7.078125 2.765625 -7.265625 C 2.878906 -7.460938 3.03125 -7.640625 3.21875 -7.796875 C 3.414062 -7.953125 3.671875 -8.070312 3.984375 -8.15625 C 3.671875 -8.226562 3.414062 -8.34375 3.21875 -8.5 C 3.03125 -8.65625 2.878906 -8.828125 2.765625 -9.015625 C 2.660156 -9.210938 2.585938 -9.425781 2.546875 -9.65625 C 2.503906 -9.894531 2.476562 -10.140625 2.46875 -10.390625 L 2.328125 -13.015625 C 2.296875 -13.640625 2.191406 -14.09375 2.015625 -14.375 C 1.835938 -14.664062 1.5 -14.8125 1 -14.8125 L 0.5625 -14.8125 L 0.5625 -16.296875 Z M 1.625 -16.296875 "/></g></g></g><g fill="#5697c2" fill-opacity="1"><g transform="translate(31.999723, 25.068058)"><g><path d="M 1.203125 -16.296875 C 2.453125 -16.296875 3.320312 -16.003906 3.8125 -15.421875 C 4.3125 -14.835938 4.5625 -13.9375 4.5625 -12.71875 L 4.5625 -3.578125 C 4.5625 -2.359375 4.3125 -1.457031 3.8125 -0.875 C 3.320312 -0.289062 2.453125 0 1.203125 0 L 0.5625 0 L 0.5625 -1.484375 L 1.09375 -1.484375 C 1.75 -1.484375 2.191406 -1.65625 2.421875 -2 C 2.648438 -2.34375 2.765625 -2.867188 2.765625 -3.578125 L 2.765625 -12.71875 C 2.765625 -13.425781 2.644531 -13.953125 2.40625 -14.296875 C 2.164062 -14.640625 1.726562 -14.8125 1.09375 -14.8125 L 0.5625 -14.8125 L 0.5625 -16.296875 Z M 1.203125 -16.296875 "/></g></g></g><g fill="#fff8b8" fill-opacity="1"><g transform="translate(45.061313, 20.305359)"><g><path d="M 1.15625 -0.625 L 1.15625 -6.171875 L 0.265625 -6.171875 L 0.265625 -6.796875 L 1.90625 -6.796875 L 1.90625 0 L 0.265625 0 L 0.265625 -0.625 Z M 1.15625 -0.625 "/></g></g></g><g fill="#fff8b8" fill-opacity="1"><g transform="translate(46.826501, 20.305359)"><g><path d="M 0.359375 -3.734375 L 2.21875 -3.734375 L 2.21875 -3.0625 L 0.359375 -3.0625 Z M 0.359375 -3.734375 "/></g></g></g><g fill="#fff8b8" fill-opacity="1"><g transform="translate(48.814774, 20.305359)"><g><path d="M 2.078125 -0.625 L 2.078125 0 L 0.4375 0 L 0.4375 -6.796875 L 2.078125 -6.796875 L 2.078125 -6.171875 L 1.1875 -6.171875 L 1.1875 -0.625 Z M 2.078125 -0.625 "/></g></g></g><g fill="#fff8b8" fill-opacity="1"><g transform="translate(22.180001, 20.305359)"><g><path d="M 1.15625 -0.625 L 1.15625 -6.171875 L 0.265625 -6.171875 L 0.265625 -6.796875 L 1.90625 -6.796875 L 1.90625 0 L 0.265625 0 L 0.265625 -0.625 Z M 1.15625 -0.625 "/></g></g></g><g fill="#fff8b8" fill-opacity="1"><g transform="translate(24.013095, 20.305359)"><g><path d="M 0.953125 -6.796875 L 2.0625 -0.890625 L 3.15625 -6.796875 L 3.859375 -6.796875 L 2.59375 0 L 1.46875 0 L 0.1875 -6.796875 Z M 0.953125 -6.796875 "/></g></g></g><g fill="#fff8b8" fill-opacity="1"><g transform="translate(27.55327, 20.305359)"><g><path d="M 2.078125 -0.625 L 2.078125 0 L 0.4375 0 L 0.4375 -6.796875 L 2.078125 -6.796875 L 2.078125 -6.171875 L 1.1875 -6.171875 L 1.1875 -0.625 Z M 2.078125 -0.625 "/></g></g></g></svg>