<svg xmlns="http://www.w3.org/2000/svg" xmlns:xlink="http://www.w3.org/1999/xlink" width="500" zoomAndPan="magnify" viewBox="0 0 375 374.999991" height="500" preserveAspectRatio="xMidYMid meet" version="1.0"><defs><g/></defs><g fill="#5697c2" fill-opacity="1"><g transform="translate(186.690592, 227.999985)"><g><path d="M 32.0625 -105.09375 C 27.539062 -105.09375 24.425781 -103.878906 22.71875 -101.453125 C 21.007812 -99.035156 20.15625 -95.289062 20.15625 -90.21875 L 20.15625 -25.453125 C 20.15625 -20.378906 20.984375 -16.628906 22.640625 -14.203125 C 24.296875 -11.785156 27.4375 -10.578125 32.0625 -10.578125 L 35.859375 -10.578125 L 35.859375 0 L 31.234375 0 C 22.421875 0 16.25 -2.0625 12.71875 -6.1875 C 9.195312 -10.320312 7.4375 -16.742188 7.4375 -25.453125 L 7.4375 -90.21875 C 7.4375 -98.925781 9.195312 -105.34375 12.71875 -109.46875 C 16.25 -113.601562 22.421875 -115.671875 31.234375 -115.671875 L 35.859375 -115.671875 L 35.859375 -105.09375 Z M 32.0625 -105.09375 "/></g></g></g><g fill="#5697c2" fill-opacity="1"><g transform="translate(207.840488, 227.999985)"><g><path d="M 35.359375 -105.09375 C 31.835938 -105.09375 29.441406 -104.070312 28.171875 -102.03125 C 26.910156 -100 26.164062 -96.78125 25.9375 -92.375 L 24.953125 -73.703125 C 24.835938 -71.941406 24.644531 -70.234375 24.375 -68.578125 C 24.101562 -66.921875 23.578125 -65.40625 22.796875 -64.03125 C 22.023438 -62.65625 20.953125 -61.414062 19.578125 -60.3125 C 18.203125 -59.207031 16.414062 -58.382812 14.21875 -57.84375 C 16.414062 -57.289062 18.203125 -56.460938 19.578125 -55.359375 C 20.953125 -54.253906 22.023438 -53.015625 22.796875 -51.640625 C 23.578125 -50.265625 24.101562 -48.75 24.375 -47.09375 C 24.644531 -45.445312 24.835938 -43.738281 24.953125 -41.96875 L 25.9375 -23.296875 C 26.164062 -18.890625 26.910156 -15.664062 28.171875 -13.625 C 29.441406 -11.59375 31.835938 -10.578125 35.359375 -10.578125 L 38.5 -10.578125 L 38.5 0 L 30.90625 0 C 25.613281 0 21.644531 -1.539062 19 -4.625 C 16.351562 -7.707031 14.8125 -12.0625 14.375 -17.6875 L 13.21875 -40.15625 C 13 -44.226562 12.3125 -47.203125 11.15625 -49.078125 C 10 -50.953125 7.382812 -52.054688 3.3125 -52.390625 L 3.3125 -63.296875 C 7.382812 -63.617188 10 -64.71875 11.15625 -66.59375 C 12.3125 -68.46875 13 -71.441406 13.21875 -75.515625 L 14.375 -98 C 14.8125 -103.613281 16.351562 -107.960938 19 -111.046875 C 21.644531 -114.128906 25.613281 -115.671875 30.90625 -115.671875 L 38.5 -115.671875 L 38.5 -105.09375 Z M 35.359375 -105.09375 "/></g></g></g><g fill="#5697c2" fill-opacity="1"><g transform="translate(124.664123, 227.999985)"><g><path d="M 11.5625 -115.671875 C 16.738281 -115.671875 20.675781 -114.128906 23.375 -111.046875 C 26.082031 -107.960938 27.597656 -103.613281 27.921875 -98 L 29.25 -75.515625 C 29.363281 -73.535156 29.554688 -71.800781 29.828125 -70.3125 C 30.097656 -68.820312 30.5625 -67.582031 31.21875 -66.59375 C 31.882812 -65.601562 32.851562 -64.832031 34.125 -64.28125 C 35.394531 -63.726562 37.019531 -63.398438 39 -63.296875 L 39 -52.390625 C 37.019531 -52.160156 35.394531 -51.796875 34.125 -51.296875 C 32.851562 -50.804688 31.882812 -50.066406 31.21875 -49.078125 C 30.5625 -48.085938 30.097656 -46.847656 29.828125 -45.359375 C 29.554688 -43.867188 29.363281 -42.132812 29.25 -40.15625 L 27.921875 -17.6875 C 27.597656 -12.0625 26.082031 -7.707031 23.375 -4.625 C 20.675781 -1.539062 16.738281 0 11.5625 0 L 3.96875 0 L 3.96875 -10.578125 L 7.109375 -10.578125 C 10.628906 -10.578125 13.019531 -11.59375 14.28125 -13.625 C 15.550781 -15.664062 16.300781 -18.890625 16.53125 -23.296875 L 17.515625 -41.96875 C 17.628906 -43.738281 17.820312 -45.445312 18.09375 -47.09375 C 18.375 -48.75 18.898438 -50.265625 19.671875 -51.640625 C 20.441406 -53.015625 21.515625 -54.253906 22.890625 -55.359375 C 24.265625 -56.460938 26.050781 -57.289062 28.25 -57.84375 C 26.050781 -58.382812 24.265625 -59.207031 22.890625 -60.3125 C 21.515625 -61.414062 20.441406 -62.65625 19.671875 -64.03125 C 18.898438 -65.40625 18.375 -66.921875 18.09375 -68.578125 C 17.820312 -70.234375 17.628906 -71.941406 17.515625 -73.703125 L 16.53125 -92.375 C 16.300781 -96.78125 15.550781 -100 14.28125 -102.03125 C 13.019531 -104.070312 10.628906 -105.09375 7.109375 -105.09375 L 3.96875 -105.09375 L 3.96875 -115.671875 Z M 11.5625 -115.671875 "/></g></g></g><g fill="#5697c2" fill-opacity="1"><g transform="translate(148.457947, 227.999985)"><g><path d="M 8.59375 -115.671875 C 17.40625 -115.671875 23.570312 -113.601562 27.09375 -109.46875 C 30.625 -105.34375 32.390625 -98.925781 32.390625 -90.21875 L 32.390625 -25.453125 C 32.390625 -16.742188 30.625 -10.320312 27.09375 -6.1875 C 23.570312 -2.0625 17.40625 0 8.59375 0 L 3.96875 0 L 3.96875 -10.578125 L 7.765625 -10.578125 C 12.390625 -10.578125 15.53125 -11.785156 17.1875 -14.203125 C 18.84375 -16.628906 19.671875 -20.378906 19.671875 -25.453125 L 19.671875 -90.21875 C 19.671875 -95.289062 18.816406 -99.035156 17.109375 -101.453125 C 15.398438 -103.878906 12.285156 -105.09375 7.765625 -105.09375 L 3.96875 -105.09375 L 3.96875 -115.671875 Z M 8.59375 -115.671875 "/></g></g></g><g fill="#fff8b8" fill-opacity="1"><g transform="translate(241.17165, 194.193408)"><g><path d="M 8.1875 -4.40625 L 8.1875 -43.78125 L 1.921875 -43.78125 L 1.921875 -48.1875 L 13.5625 -48.1875 L 13.5625 0 L 1.921875 0 L 1.921875 -4.40625 Z M 8.1875 -4.40625 "/></g></g></g><g fill="#fff8b8" fill-opacity="1"><g transform="translate(253.701303, 194.193408)"><g><path d="M 2.546875 -26.5 L 15.703125 -26.5 L 15.703125 -21.6875 L 2.546875 -21.6875 Z M 2.546875 -26.5 "/></g></g></g><g fill="#fff8b8" fill-opacity="1"><g transform="translate(267.814455, 194.193408)"><g><path d="M 14.734375 -4.40625 L 14.734375 0 L 3.09375 0 L 3.09375 -48.1875 L 14.734375 -48.1875 L 14.734375 -43.78125 L 8.40625 -43.78125 L 8.40625 -4.40625 Z M 14.734375 -4.40625 "/></g></g></g><g fill="#fff8b8" fill-opacity="1"><g transform="translate(78.755649, 194.193408)"><g><path d="M 8.1875 -4.40625 L 8.1875 -43.78125 L 1.921875 -43.78125 L 1.921875 -48.1875 L 13.5625 -48.1875 L 13.5625 0 L 1.921875 0 L 1.921875 -4.40625 Z M 8.1875 -4.40625 "/></g></g></g><g fill="#fff8b8" fill-opacity="1"><g transform="translate(91.767312, 194.193408)"><g><path d="M 6.8125 -48.1875 L 14.65625 -6.265625 L 22.4375 -48.1875 L 27.40625 -48.1875 L 18.375 0 L 10.46875 0 L 1.375 -48.1875 Z M 6.8125 -48.1875 "/></g></g></g><g fill="#fff8b8" fill-opacity="1"><g transform="translate(116.896163, 194.193408)"><g><path d="M 14.734375 -4.40625 L 14.734375 0 L 3.09375 0 L 3.09375 -48.1875 L 14.734375 -48.1875 L 14.734375 -43.78125 L 8.40625 -43.78125 L 8.40625 -4.40625 Z M 14.734375 -4.40625 "/></g></g></g></svg>